<svg xmlns="http://www.w3.org/2000/svg" viewBox="0 0 151.54 153.94"><path d="M50.32 37.54c-.47.3-.28.63.06.81 4.17 2.22 6.78 6.09 10 9.37 2.9 3 6 5.65 10.2 6.81 5.44 1.5 10.4 0 15.23-2.16 9.09-4 16.78-10.14 24.17-16.64A157.41 157.41 0 0 0 125.11 21c.86-1 1.51-.8 2.34 0a85 85 0 0 1 10.65 12.39 2.41 2.41 0 0 1-.21 3.44 144.07 144.07 0 0 1-29.68 26.52C101.4 68 94.49 72.42 86.45 74.61c-6.16 1.69-11.71.74-16-4.38-1.74-2-3.31-4.24-5.1-6.24-4.69-5.26-9.39-6.2-16.36-3.8-8.79 3-15 9.28-20.66 16.22-8.13 9.94-15 20.74-21.46 31.79a4.24 4.24 0 0 1-1.44 1.8c-1.7-2.18-2.28-4.85-3.35-7.29-.31-.73-.48-1.52-.78-2.27-1.8-4.54-1.87-8.67.7-13.25 6.21-11.14 12-22.54 20-32.58A62.59 62.59 0 0 1 37.76 40c3.45-2.14 7.1-3.34 11.22-2.27.44.11 1 .42 1.36-.21z" fill="#8eb808"/><path d="M151.52 77.38v2a8.24 8.24 0 0 1-3.13 7.21c-10 8.71-20.6 16.61-32.64 22.37a30.81 30.81 0 0 1-9.37 2.78c-5.49.72-9.74-1.5-13.21-5.53-1.47-1.7-2.83-3.5-4.27-5.24-4.81-5.79-9.38-6.67-17-4.09-8.65 2.93-14.67 9.2-20.27 16-6.86 8.32-12.66 17.37-18.31 26.53-.88 1.42-1.5 1.59-2.85.61-2.89-2.1-5.65-4.34-8.31-6.71a1.73 1.73 0 0 1-.48-2.43c5.74-11.68 11.73-23.21 19.13-33.94 5.56-8.08 11.94-15.4 20.46-20.57 6.64-4 11.3-3.48 16.82 2 2.83 2.82 5.4 5.92 8.37 8.58 6.76 6 14.32 5.51 22 2.14 8.29-3.61 15.38-9 22.27-14.78a215.27 215.27 0 0 0 16.65-15.74c.39-.4.72-1.14 1.35-.86.32.14.43.86.54 1.34a84 84 0 0 1 2.25 18.33z" fill="#3898cd"/><path d="M50.34 37.56c.4-.36.13-.68-.14-.89-3.33-2.56-5.53-6.15-8.31-9.21-4.67-5.16-9.39-6.21-15.89-3.79a39 39 0 0 0-13.41 8.14c.79-2.18 2.2-3.23 3.17-4.57a35.65 35.65 0 0 1 3.5-3.88 75.45 75.45 0 0 1 33.16-20.2A78.41 78.41 0 0 1 106 6.65c1.37.61 2.06 1.13.63 2.51C96 19.41 84.39 28.4 71.2 35.17a34.34 34.34 0 0 1-10.05 3.47 14.86 14.86 0 0 1-9-.9c-.49-.23-1.15-1.15-1.86-.2z" fill="#8eb808"/><path d="M134.78 124.18a15 15 0 0 1-2.88 4 76.28 76.28 0 0 1-37.35 23.05 72.48 72.48 0 0 1-28.32 2.21c-3.68-.47-7.3-1.22-10.92-2-1.07-.22-2.07-.44-1.21-2C61.3 136.58 69 124.09 81 115a30.32 30.32 0 0 1 5.15-3.24c6.13-3 11.27-1.73 16 3.56a105.54 105.54 0 0 0 7.32 7.79c5.9 5.36 12.56 5.8 19.74 3.31 1.79-.64 3.44-1.42 5.57-2.24z" fill="#3898cd"/></svg>